<svg width="221" height="212" viewBox="0 0 221 212" fill="none" xmlns="http://www.w3.org/2000/svg">
<path d="M0 205.36H17.063H34.126V6.04001H0V0H93.016C118.988 0 139.323 5.23467 154.02 15.704C168.919 25.972 176.368 40.0653 176.368 57.984C176.368 71.6747 171.536 83.05 161.872 92.11C152.409 101.17 139.323 107.311 122.612 110.532L193.884 205.36H220.762V211.4H118.384V205.36H163.382L95.13 115.666H60.098V205.36H91.204V211.4H0V205.36ZM92.11 109.626C110.633 109.626 125.028 105.096 135.296 96.036C145.765 86.976 151 74.1913 151 57.682C151 41.374 145.765 28.69 135.296 19.63C125.028 10.57 110.633 6.04001 92.11 6.04001H60.098V109.626H92.11Z" fill="WHITE"/>
</svg>
