<svg width="168" height="240" viewBox="0 0 168 240" fill="none" xmlns="http://www.w3.org/2000/svg">
<path d="M0 143.138H5.738V161.862C5.93933 172.13 10.57 182.197 19.63 192.062C28.8913 201.927 40.8707 209.981 55.568 216.222C70.2653 222.262 85.466 225.282 101.17 225.282C111.639 225.282 120.901 223.671 128.954 220.45C137.007 217.229 143.249 212.799 147.678 207.162C152.309 201.323 154.624 194.679 154.624 187.23C154.624 179.378 151.906 172.734 146.47 167.298C141.235 161.862 134.491 157.433 126.236 154.01C117.981 150.386 106.908 146.359 93.016 141.93C92.412 141.93 91.7073 141.829 90.902 141.628C90.298 141.225 89.694 140.923 89.09 140.722C88.8887 140.521 88.6873 140.42 88.486 140.42C88.2847 140.42 88.0833 140.319 87.882 140.118C69.762 134.279 55.0647 128.743 43.79 123.508C32.7167 118.273 23.254 111.227 15.402 102.368C7.55 93.308 3.624 81.9327 3.624 68.242C3.624 57.1687 6.54333 47.404 12.382 38.948C18.422 30.492 26.9787 23.9487 38.052 19.318C49.3267 14.486 62.4133 12.07 77.312 12.07C86.5733 12.07 95.5327 13.1773 104.19 15.392C113.049 17.4053 121.505 20.224 129.558 23.848C133.786 26.0627 137.712 28.378 141.336 30.794C145.161 33.21 148.685 35.7267 151.906 38.344V0.593994H157.946V92.402H152.208V74.886C152.208 67.034 147.779 58.88 138.92 50.424C130.061 41.7667 118.787 34.6193 105.096 28.982C91.4053 23.3447 78.0167 20.526 64.93 20.526C49.4273 20.526 37.146 23.848 28.086 30.492C19.2273 37.136 14.798 46.0953 14.798 57.37C14.798 65.6247 17.4153 72.6713 22.65 78.51C27.8847 84.1473 34.73 88.9793 43.186 93.006C51.642 96.8313 62.514 100.858 75.802 105.086C77.2113 105.489 78.52 105.992 79.728 106.596C81.1373 106.999 82.5467 107.401 83.956 107.804L89.09 109.314C105.398 114.951 118.887 120.387 129.558 125.622C140.43 130.655 149.389 137.299 156.436 145.554C163.684 153.809 167.308 163.674 167.308 175.15C167.308 186.827 164.187 196.995 157.946 205.652C151.906 214.309 143.249 220.953 131.974 225.584C120.699 230.215 107.411 232.53 92.11 232.53C80.2313 232.53 69.158 231.322 58.89 228.906C48.622 226.691 39.1593 223.47 30.502 219.242C25.8713 217.027 21.5427 214.611 17.516 211.994C13.6907 209.175 9.86533 206.256 6.04 203.236V239.476H0V143.138Z" fill="white"/>
</svg>
