<svg width="188" height="233" viewBox="0 0 188 233" fill="none" xmlns="http://www.w3.org/2000/svg">
<path d="M39.562 226.5H80.634V27.18H28.086C25.066 27.18 21.744 28.5893 18.12 31.408C14.6973 34.0253 11.778 37.2467 9.362 41.072C6.946 44.8973 5.73799 48.5213 5.73799 51.944V87.882H0V0H6.03999V21.14H181.502V0H187.542V87.882H181.804V51.944C181.804 48.5213 180.596 44.8973 178.18 41.072C175.764 37.2467 172.744 34.0253 169.12 31.408C165.697 28.5893 162.476 27.18 159.456 27.18H106.908V226.5H147.678V232.54H39.562V226.5Z" fill="WHITE"/>
</svg>
